# xmcd
#
# Track frame offsets: 
#        183
#        17733
#        32208
#        47608
#        61393
#        72838
#        89583
#        105033
#        123423
#        141108
#        159183
#        174793
#        189828
#        208308
#        226608
#        242133
#        257608
#        271725
#
# Disc length: 3853 seconds
#
# Revision: 4
# Processed by: cddbd v1.5.2PL0 Copyright (c) Steve Scherf et al.
# Submitted via: ExactAudioCopy v0.99pb5
#
DISCID=e30f0b12
DTITLE=Various Artist - Die deutschen Single-Hits der 70er Jahre - CD 3
DYEAR=1996
DGENRE=Schlager
TTITLE0=Vicky Leandros - Theo, wir fahr'n nach Lodz
TTITLE1=Freddy Breck - Der große Zampano
TTITLE2=Bata Illic - Auf der Straße der Sehnsucht
TTITLE3=Ireen Sheer - Goodbye Mama
TTITLE4=Insterburg and Co. - Ich liebte ein Mädchen
TTITLE5=Gitte - So schön kann doch kein Mann sein
TTITLE6=Demis Roussos - Schönes Mädchen aus Arcadia
TTITLE7=Udo Jürgens - Griechischer Wein
TTITLE8=Daliah Lavi - Nichts haut mich um - aber du
TTITLE9=Michael Holm - Tränen lügen nicht
TTITLE10=Erik Silvester - Wenn die Trommel ruft
TTITLE11=Lena Andersson - S.O.S.
TTITLE12=Waterloo and Robinson - Das war Hollywood von gestern
TTITLE13=Demis Roussos - Schön wie Mona Lisa (Wenn ich ein Maler wär')
TTITLE13=
TTITLE14=Vicky Leandros - Ja, ja der Peter der ist schlau
TTITLE15=Lars Berghagen - Es war einmal eine Gitarre
TTITLE16=Bata Illic - Ich hab' noch Sand in den Schuh'n aus Hawaii
TTITLE17=Mireille Mathieu - La Paloma ade
EXTD=
EXTT0=
EXTT1=
EXTT2=
EXTT3=
EXTT4=
EXTT5=
EXTT6=
EXTT7=
EXTT8=
EXTT9=
EXTT10=
EXTT11=
EXTT12=
EXTT13=
EXTT14=
EXTT15=
EXTT16=
EXTT17=
PLAYORDER=
